<svg preserveAspectRatio="none" overflow="visible" style="display: block;" width="179" height="143" viewBox="0 0 179 143" fill="none" xmlns="http://www.w3.org/2000/svg">
<g id="Vector" style="mix-blend-mode:color-burn">
<path d="M146.34 142.567L159.895 112.264H165.403L179 142.567H173.148L161.487 115.251H163.724L152.106 142.567H146.34ZM152.58 135.554L154.086 131.139H170.351L171.857 135.554H152.58Z" fill="#8A784A"/>
<path d="M112.049 142.567V117.026H102.066V112.264H127.625V117.026H117.642V142.567H112.049Z" fill="#8A784A"/>
<path d="M70.2174 143C67.9225 143 65.7853 142.625 63.806 141.874C61.8553 141.095 60.1484 140.013 58.6854 138.628C57.2511 137.214 56.1323 135.554 55.3291 133.649C54.5258 131.745 54.1242 129.667 54.1242 127.416C54.1242 125.165 54.5258 123.087 55.3291 121.182C56.1323 119.277 57.2654 117.632 58.7284 116.247C60.1914 114.833 61.8983 113.751 63.849 113C65.7997 112.221 67.9368 111.831 70.2604 111.831C72.7275 111.831 74.9794 112.264 77.0161 113.13C79.0529 113.967 80.7741 115.222 82.1797 116.896L78.5652 120.316C77.4751 119.133 76.2559 118.253 74.9077 117.676C73.5594 117.07 72.0964 116.766 70.5186 116.766C68.9408 116.766 67.4922 117.026 66.1726 117.546C64.8817 118.065 63.7486 118.801 62.7732 119.753C61.8266 120.706 61.0807 121.831 60.5357 123.13C60.0193 124.429 59.7611 125.857 59.7611 127.416C59.7611 128.974 60.0193 130.403 60.5357 131.701C61.0807 133 61.8266 134.126 62.7732 135.078C63.7486 136.03 64.8817 136.766 66.1726 137.286C67.4922 137.805 68.9408 138.065 70.5186 138.065C72.0964 138.065 73.5594 137.776 74.9077 137.199C76.2559 136.593 77.4751 135.684 78.5652 134.472L82.1797 137.935C80.7741 139.58 79.0529 140.836 77.0161 141.701C74.9794 142.567 72.7131 143 70.2174 143Z" fill="#8A784A"/>
<path d="M18.3307 143C15.9784 143 13.8126 142.625 11.8332 141.874C9.88253 141.095 8.17568 140.013 6.71266 138.628C5.24965 137.214 4.11653 135.554 3.3133 133.649C2.51008 131.745 2.10846 129.667 2.10846 127.416C2.10846 125.165 2.51008 123.087 3.3133 121.182C4.11653 119.277 5.24965 117.632 6.71266 116.247C8.20437 114.833 9.93991 113.751 11.9193 113C13.8987 112.221 16.0645 111.831 18.4168 111.831C20.9699 111.831 23.2648 112.25 25.3016 113.087C27.367 113.924 29.1026 115.15 30.5082 116.766L26.9798 120.23C25.8036 119.046 24.527 118.181 23.1501 117.632C21.8018 117.055 20.3101 116.766 18.675 116.766C17.0972 116.766 15.6342 117.026 14.2859 117.546C12.9377 118.065 11.7758 118.801 10.8005 119.753C9.82516 120.706 9.06497 121.831 8.51992 123.13C8.00356 124.429 7.74538 125.857 7.74538 127.416C7.74538 128.945 8.00356 130.359 8.51992 131.658C9.06497 132.957 9.82516 134.097 10.8005 135.078C11.7758 136.03 12.9233 136.766 14.2429 137.286C15.5625 137.805 17.0255 138.065 18.6319 138.065C20.1236 138.065 21.558 137.834 22.9349 137.372C24.3406 136.882 25.6745 136.074 26.9367 134.948L30.1209 139.147C28.5432 140.417 26.7072 141.384 24.6131 142.048C22.5477 142.683 20.4535 143 18.3307 143ZM30.1209 139.147L24.8283 138.411V127.069H30.1209V139.147Z" fill="#8A784A"/>
<path d="M165.887 87.0843C163.592 87.0843 161.455 86.7091 159.475 85.9587C157.525 85.1795 155.818 84.0973 154.355 82.712C152.92 81.2979 151.802 79.6385 150.998 77.7337C150.195 75.829 149.793 73.7511 149.793 71.5C149.793 69.2489 150.195 67.171 150.998 65.2663C151.802 63.3615 152.935 61.7165 154.398 60.3313C155.861 58.9172 157.568 57.8349 159.518 57.0846C161.469 56.3054 163.606 55.9157 165.93 55.9157C168.397 55.9157 170.649 56.3486 172.685 57.2144C174.722 58.0514 176.443 59.3068 177.849 60.9806L174.234 64.4005C173.144 63.2173 171.925 62.337 170.577 61.7598C169.229 61.1538 167.766 60.8508 166.188 60.8508C164.61 60.8508 163.161 61.1105 161.842 61.63C160.551 62.1494 159.418 62.8854 158.442 63.8377C157.496 64.7901 156.75 65.9156 156.205 67.2143C155.689 68.513 155.43 69.9416 155.43 71.5C155.43 73.0584 155.689 74.487 156.205 75.7857C156.75 77.0844 157.496 78.2099 158.442 79.1623C159.418 80.1146 160.551 80.8506 161.842 81.37C163.161 81.8895 164.61 82.1492 166.188 82.1492C167.766 82.1492 169.229 81.8606 170.577 81.2835C171.925 80.6774 173.144 79.7683 174.234 78.5562L177.849 82.0194C176.443 83.6644 174.722 84.9198 172.685 85.7856C170.649 86.6514 168.382 87.0843 165.887 87.0843Z" fill="#8A784A"/>
<path d="M96.6778 86.6514L110.232 56.3486H115.74L129.337 86.6514H123.485L111.824 59.3356H114.062L102.444 86.6514H96.6778ZM102.917 79.6384L104.423 75.2229H120.688L122.195 79.6384H102.917Z" fill="#8A784A"/>
<path d="M62.9928 87.0843C60.6405 87.0843 58.4746 86.7091 56.4952 85.9587C54.5446 85.1795 52.8377 84.0973 51.3747 82.712C49.9117 81.2979 48.7785 79.6385 47.9753 77.7337C47.1721 75.829 46.7705 73.7511 46.7705 71.5C46.7705 69.2489 47.1721 67.171 47.9753 65.2663C48.7785 63.3615 49.9117 61.7165 51.3747 60.3313C52.8664 58.9172 54.6019 57.8349 56.5813 57.0846C58.5607 56.3054 60.7265 55.9157 63.0788 55.9157C65.6319 55.9157 67.9268 56.3342 69.9636 57.1711C72.029 58.0081 73.7646 59.2346 75.1702 60.8508L71.6418 64.3139C70.4656 63.1307 69.1891 62.2649 67.8121 61.7166C66.4638 61.1394 64.9721 60.8508 63.337 60.8508C61.7592 60.8508 60.2962 61.1105 58.9479 61.63C57.5997 62.1494 56.4379 62.8854 55.4625 63.8377C54.4872 64.7901 53.727 65.9156 53.1819 67.2143C52.6656 68.513 52.4074 69.9416 52.4074 71.5C52.4074 73.0296 52.6656 74.4437 53.1819 75.7424C53.727 77.0411 54.4872 78.181 55.4625 79.1623C56.4379 80.1146 57.5853 80.8506 58.9049 81.37C60.2245 81.8895 61.6875 82.1492 63.294 82.1492C64.7857 82.1492 66.22 81.9184 67.5969 81.4566C69.0026 80.966 70.3365 80.1579 71.5987 79.0324L74.783 83.2315C73.2052 84.5013 71.3692 85.4681 69.2751 86.1319C67.2097 86.7668 65.1156 87.0843 62.9928 87.0843ZM74.783 83.2315L69.4903 82.4956V71.1537H74.783V83.2315Z" fill="#8A784A"/>
<path d="M10.3702 86.6514V61.1105H0.387268V56.3486H25.947V61.1105H15.9641V86.6514H10.3702Z" fill="#8A784A"/>
<path d="M163.663 31.1685C161.31 31.1685 159.144 30.7933 157.165 30.043C155.214 29.2638 153.507 28.1815 152.044 26.7963C150.581 25.3821 149.448 23.7227 148.645 21.818C147.842 19.9132 147.44 17.8353 147.44 15.5843C147.44 13.3332 147.842 11.2553 148.645 9.35056C149.448 7.44582 150.581 5.8008 152.044 4.41554C153.536 3.00141 155.272 1.91917 157.251 1.16882C159.23 0.389604 161.396 0 163.749 0C166.302 0 168.597 0.418465 170.633 1.2554C172.699 2.09233 174.434 3.31887 175.84 4.93502L172.312 8.39818C171.135 7.21493 169.859 6.34914 168.482 5.80081C167.134 5.22361 165.642 4.93502 164.007 4.93502C162.429 4.93502 160.966 5.19475 159.618 5.71423C158.269 6.2337 157.108 6.96963 156.132 7.922C155.157 8.87437 154.397 9.9999 153.852 11.2986C153.335 12.5973 153.077 14.0258 153.077 15.5843C153.077 17.1138 153.335 18.528 153.852 19.8266C154.397 21.1253 155.157 22.2653 156.132 23.2465C157.108 24.1989 158.255 24.9348 159.575 25.4543C160.894 25.9738 162.357 26.2335 163.964 26.2335C165.455 26.2335 166.89 26.0026 168.267 25.5409C169.672 25.0503 171.006 24.2422 172.269 23.1167L175.453 27.3157C173.875 28.5856 172.039 29.5524 169.945 30.2161C167.879 30.8511 165.785 31.1685 163.663 31.1685ZM175.453 27.3157L170.16 26.5798V15.2379H175.453V27.3157Z" fill="#8A784A"/>
<path d="M113.871 31.1685C111.576 31.1685 109.439 30.7933 107.459 30.043C105.509 29.2638 103.802 28.1815 102.339 26.7963C100.905 25.3821 99.7858 23.7227 98.9826 21.818C98.1793 19.9132 97.7777 17.8353 97.7777 15.5843C97.7777 13.3332 98.1793 11.2553 98.9826 9.35056C99.7858 7.44582 100.919 5.8008 102.382 4.41554C103.845 3.00141 105.552 1.91917 107.502 1.16882C109.453 0.389604 111.59 0 113.914 0C116.381 0 118.633 0.432897 120.67 1.29869C122.706 2.13562 124.428 3.39102 125.833 5.06488L122.219 8.48477C121.129 7.30152 119.909 6.42129 118.561 5.84409C117.213 5.23804 115.75 4.93502 114.172 4.93502C112.594 4.93502 111.146 5.19475 109.826 5.71423C108.535 6.2337 107.402 6.96963 106.427 7.922C105.48 8.87437 104.734 9.9999 104.189 11.2986C103.673 12.5973 103.415 14.0258 103.415 15.5843C103.415 17.1427 103.673 18.5712 104.189 19.8699C104.734 21.1686 105.48 22.2941 106.427 23.2465C107.402 24.1989 108.535 24.9348 109.826 25.4543C111.146 25.9738 112.594 26.2335 114.172 26.2335C115.75 26.2335 117.213 25.9449 118.561 25.3677C119.909 24.7617 121.129 23.8526 122.219 22.6405L125.833 26.1036C124.428 27.7486 122.706 29.004 120.67 29.8698C118.633 30.7356 116.367 31.1685 113.871 31.1685Z" fill="#8A784A"/>
<path d="M61.3775 30.7356V5.19475H51.3945V0.432892H76.9543V5.19475H66.9713V30.7356H61.3775Z" fill="#8A784A"/>
<path d="M0 30.7356L13.5544 0.432892H19.0622L32.6597 30.7356H26.8076L15.1465 3.41988H17.3841L5.76601 30.7356H0ZM6.23934 23.7227L7.74538 19.3072H24.0107L25.5167 23.7227H6.23934Z" fill="#8A784A"/>
</g>
</svg>
